<svg id="Livello_1" data-name="Livello 1" xmlns="http://www.w3.org/2000/svg" viewBox="0 0 297.05 226.42"><defs><style>.cls-1{fill:#fff;}</style></defs><path class="cls-1" d="M252.68,55.77A245,245,0,0,0,192.21,37a.94.94,0,0,0-1,.46,172,172,0,0,0-7.53,15.47,226,226,0,0,0-67.91,0,154.21,154.21,0,0,0-7.65-15.47,1,1,0,0,0-1-.46A244.36,244.36,0,0,0,46.72,55.77a.88.88,0,0,0-.4.34C7.81,113.65-2.74,169.77,2.44,225.19a1,1,0,0,0,.38.7A246.08,246.08,0,0,0,77,263.38a1,1,0,0,0,1-.34,176.24,176.24,0,0,0,15.17-24.68.94.94,0,0,0-.51-1.31A162,162,0,0,1,69.53,226a1,1,0,0,1-.09-1.58c1.56-1.17,3.11-2.38,4.6-3.6a.91.91,0,0,1,1-.13c48.61,22.2,101.25,22.2,149.29,0a.9.9,0,0,1,1,.11c1.49,1.23,3.05,2.45,4.61,3.62a1,1,0,0,1-.08,1.58,152,152,0,0,1-23.18,11,1,1,0,0,0-.51,1.33A197,197,0,0,0,221.26,263a.93.93,0,0,0,1,.36,245.48,245.48,0,0,0,74.29-37.5.91.91,0,0,0,.39-.68c6.19-64.08-10.38-119.74-43.92-169.08A.76.76,0,0,0,252.68,55.77ZM100.47,191.44c-14.64,0-26.69-13.43-26.69-29.94s11.82-29.94,26.69-29.94,26.93,13.55,26.7,29.94C127.17,178,115.34,191.44,100.47,191.44Zm98.71,0c-14.64,0-26.69-13.43-26.69-29.94s11.82-29.94,26.69-29.94,26.93,13.55,26.69,29.94C225.87,178,214.17,191.44,199.18,191.44Z" transform="translate(-1.21 -37)"/></svg>