<svg id="Livello_1" data-name="Livello 1" xmlns="http://www.w3.org/2000/svg" viewBox="0 0 176.74 215.69"><defs><style>.cls-1{fill:#fff;}</style></defs><path class="cls-1" d="M197.58,244.72V209.37c0-12.23-5.44-24.47-13.59-31.27,31.27-6.79,54.38-24.47,54.38-54.38,0-16.31-6.8-29.91-16.32-40.78,1.36-2.72,2.72-8.16,2.72-19,0-5.44,0-13.6-2.72-21.76,0,0-20.39,0-38.06,17.68a87.67,87.67,0,0,0-27.19-4.08c-9.52,0-19,1.36-25.83,4.08-19-17.68-38.07-17.68-38.07-17.68-4.08,8.16-4.08,16.32-4.08,21.76,0,9.51,1.36,16.31,2.72,19C82,93.81,75.23,108.77,75.23,123.72c0,29.91,23.11,47.59,54.38,54.38-8.16,5.44-12.24,15-13.6,24.48a27.14,27.14,0,0,1-12.23,2.72c-4.08,0-12.24-2.72-19-13.6-2.72-4.08-9.51-13.6-17.67-13.6-1.36,0-5.44,0-5.44,2.72,0,1.36,1.36,1.36,5.44,2.72,4.08,4.08,6.8,8.16,8.16,13.6,1.36,9.51,9.51,25.83,28.55,25.83A56.08,56.08,0,0,0,116,221.61v21.75c0,3.11-.26,9-.26,11,14.07,4.89,68.5,4.46,82,0C197.75,252.34,197.58,246.92,197.58,244.72Z" transform="translate(-61.63 -42.15)"/></svg>