<svg id="Livello_1" data-name="Livello 1" xmlns="http://www.w3.org/2000/svg" viewBox="0 0 294 294"><defs><style>.cls-1{fill:#fff;}</style></defs><path class="cls-1" d="M88.73,3A85.85,85.85,0,0,0,3,88.77v122.5A85.85,85.85,0,0,0,88.77,297h122.5A85.85,85.85,0,0,0,297,211.23V88.73A85.85,85.85,0,0,0,211.23,3Zm147,49A12.25,12.25,0,1,1,223.5,64.25,12.26,12.26,0,0,1,235.75,52ZM150,76.5A73.5,73.5,0,1,1,76.5,150,73.57,73.57,0,0,1,150,76.5Zm0,24.5a49,49,0,1,0,49,49A49,49,0,0,0,150,101Z" transform="translate(-3 -3)"/></svg>