<svg id="Livello_1" data-name="Livello 1" xmlns="http://www.w3.org/2000/svg" viewBox="0 0 300.49 223.1"><defs><style>.cls-1{fill:#fff;}</style></defs><path class="cls-1" d="M291.61,77c-2.78-15.34-16-26.5-31.37-30-23-4.87-65.52-8.36-111.55-8.36S59.48,42.16,36.46,47C21.13,50.52,7.87,61,5.09,77a458.07,458.07,0,0,0-5.58,73.2c0,31.37,2.78,55.77,6.26,73.2,2.81,15.33,16,26.5,31.37,30,24.41,4.87,66.24,8.36,112.26,8.36s87.85-3.49,112.26-8.36c15.33-3.49,28.56-13.95,31.37-30a534.84,534.84,0,0,0,7-73.2C298.58,118.85,295.1,94.45,291.61,77ZM111.06,199v-97.6l85,48.8Z" transform="translate(0.49 -38.67)"/></svg>